<mxfile host="app.diagrams.net" modified="2021-12-31T12:02:41.364Z" agent="5.0 (Windows)" etag="2XeLA0lXP2uye0J0ctye" version="15.8.8" type="github">
  <diagram id="VbJBhtBf9qCTSDIu-f8y" name="Page-1">
    <mxGraphModel dx="2883" dy="1852" grid="1" gridSize="10" guides="1" tooltips="1" connect="1" arrows="1" fold="1" page="1" pageScale="1" pageWidth="850" pageHeight="1100" math="0" shadow="0">
      <root>
        <mxCell id="0" />
        <mxCell id="1" parent="0" />
        <mxCell id="uHqkfLA_ZD--lBU3Zalu-1" value="" style="rounded=0;whiteSpace=wrap;html=1;" vertex="1" parent="1">
          <mxGeometry x="170" y="180" width="600" height="390" as="geometry" />
        </mxCell>
        <mxCell id="uHqkfLA_ZD--lBU3Zalu-3" value="" style="rounded=0;whiteSpace=wrap;html=1;" vertex="1" parent="1">
          <mxGeometry x="220" y="210" width="150" height="310" as="geometry" />
        </mxCell>
        <mxCell id="uHqkfLA_ZD--lBU3Zalu-4" value="" style="rounded=0;whiteSpace=wrap;html=1;" vertex="1" parent="1">
          <mxGeometry x="460" y="210" width="270" height="310" as="geometry" />
        </mxCell>
        <mxCell id="uHqkfLA_ZD--lBU3Zalu-5" value="" style="rounded=0;whiteSpace=wrap;html=1;" vertex="1" parent="1">
          <mxGeometry x="480" y="220" width="50" height="50" as="geometry" />
        </mxCell>
        <mxCell id="uHqkfLA_ZD--lBU3Zalu-6" value="" style="rounded=0;whiteSpace=wrap;html=1;" vertex="1" parent="1">
          <mxGeometry x="485" y="225" width="40" height="40" as="geometry" />
        </mxCell>
        <mxCell id="uHqkfLA_ZD--lBU3Zalu-7" value="Actor" style="shape=umlActor;verticalLabelPosition=bottom;verticalAlign=top;html=1;outlineConnect=0;" vertex="1" parent="1">
          <mxGeometry x="500" y="235" width="10" height="20" as="geometry" />
        </mxCell>
        <mxCell id="uHqkfLA_ZD--lBU3Zalu-8" value="" style="rounded=0;whiteSpace=wrap;html=1;" vertex="1" parent="1">
          <mxGeometry x="240" y="230" width="90" height="35" as="geometry" />
        </mxCell>
        <mxCell id="uHqkfLA_ZD--lBU3Zalu-9" value="Player inventory" style="rounded=0;whiteSpace=wrap;html=1;" vertex="1" parent="1">
          <mxGeometry x="220" y="80" width="500" height="80" as="geometry" />
        </mxCell>
        <mxCell id="uHqkfLA_ZD--lBU3Zalu-31" style="edgeStyle=orthogonalEdgeStyle;rounded=0;orthogonalLoop=1;jettySize=auto;html=1;entryX=0.75;entryY=1;entryDx=0;entryDy=0;" edge="1" parent="1" source="uHqkfLA_ZD--lBU3Zalu-11" target="uHqkfLA_ZD--lBU3Zalu-30">
          <mxGeometry relative="1" as="geometry" />
        </mxCell>
        <mxCell id="uHqkfLA_ZD--lBU3Zalu-11" value="" style="rounded=0;whiteSpace=wrap;html=1;" vertex="1" parent="1">
          <mxGeometry x="870" y="1140" width="270" height="310" as="geometry" />
        </mxCell>
        <mxCell id="uHqkfLA_ZD--lBU3Zalu-12" value="" style="rounded=0;whiteSpace=wrap;html=1;" vertex="1" parent="1">
          <mxGeometry x="890" y="1150" width="50" height="50" as="geometry" />
        </mxCell>
        <mxCell id="uHqkfLA_ZD--lBU3Zalu-13" value="" style="rounded=0;whiteSpace=wrap;html=1;" vertex="1" parent="1">
          <mxGeometry x="895" y="1155" width="40" height="40" as="geometry" />
        </mxCell>
        <mxCell id="uHqkfLA_ZD--lBU3Zalu-14" value="Actor" style="shape=umlActor;verticalLabelPosition=bottom;verticalAlign=top;html=1;outlineConnect=0;" vertex="1" parent="1">
          <mxGeometry x="910" y="1165" width="10" height="20" as="geometry" />
        </mxCell>
        <mxCell id="uHqkfLA_ZD--lBU3Zalu-15" value="Chest inventory" style="rounded=0;whiteSpace=wrap;html=1;" vertex="1" parent="1">
          <mxGeometry x="225" y="630" width="465" height="60" as="geometry" />
        </mxCell>
        <mxCell id="uHqkfLA_ZD--lBU3Zalu-16" value="" style="rounded=0;whiteSpace=wrap;html=1;" vertex="1" parent="1">
          <mxGeometry x="157.5" y="1120" width="600" height="390" as="geometry" />
        </mxCell>
        <mxCell id="uHqkfLA_ZD--lBU3Zalu-17" value="" style="rounded=0;whiteSpace=wrap;html=1;" vertex="1" parent="1">
          <mxGeometry x="207.5" y="1150" width="150" height="310" as="geometry" />
        </mxCell>
        <mxCell id="uHqkfLA_ZD--lBU3Zalu-18" value="" style="rounded=0;whiteSpace=wrap;html=1;" vertex="1" parent="1">
          <mxGeometry x="447.5" y="1150" width="270" height="310" as="geometry" />
        </mxCell>
        <mxCell id="uHqkfLA_ZD--lBU3Zalu-19" value="" style="rounded=0;whiteSpace=wrap;html=1;" vertex="1" parent="1">
          <mxGeometry x="467.5" y="1160" width="50" height="50" as="geometry" />
        </mxCell>
        <mxCell id="uHqkfLA_ZD--lBU3Zalu-91" style="edgeStyle=orthogonalEdgeStyle;rounded=0;orthogonalLoop=1;jettySize=auto;html=1;" edge="1" parent="1" source="uHqkfLA_ZD--lBU3Zalu-20" target="uHqkfLA_ZD--lBU3Zalu-28">
          <mxGeometry relative="1" as="geometry" />
        </mxCell>
        <mxCell id="uHqkfLA_ZD--lBU3Zalu-20" value="" style="rounded=0;whiteSpace=wrap;html=1;" vertex="1" parent="1">
          <mxGeometry x="472.5" y="1165" width="40" height="40" as="geometry" />
        </mxCell>
        <mxCell id="uHqkfLA_ZD--lBU3Zalu-21" value="Actor" style="shape=umlActor;verticalLabelPosition=bottom;verticalAlign=top;html=1;outlineConnect=0;" vertex="1" parent="1">
          <mxGeometry x="487.5" y="1175" width="10" height="20" as="geometry" />
        </mxCell>
        <mxCell id="uHqkfLA_ZD--lBU3Zalu-22" value="" style="rounded=0;whiteSpace=wrap;html=1;" vertex="1" parent="1">
          <mxGeometry x="227.5" y="1170" width="90" height="35" as="geometry" />
        </mxCell>
        <mxCell id="uHqkfLA_ZD--lBU3Zalu-23" value="" style="rounded=0;whiteSpace=wrap;html=1;" vertex="1" parent="1">
          <mxGeometry x="410" y="730" width="270" height="310" as="geometry" />
        </mxCell>
        <mxCell id="uHqkfLA_ZD--lBU3Zalu-24" value="" style="rounded=0;whiteSpace=wrap;html=1;" vertex="1" parent="1">
          <mxGeometry x="430" y="740" width="50" height="50" as="geometry" />
        </mxCell>
        <mxCell id="uHqkfLA_ZD--lBU3Zalu-25" value="" style="rounded=0;whiteSpace=wrap;html=1;" vertex="1" parent="1">
          <mxGeometry x="435" y="745" width="40" height="40" as="geometry" />
        </mxCell>
        <mxCell id="uHqkfLA_ZD--lBU3Zalu-26" value="Actor" style="shape=umlActor;verticalLabelPosition=bottom;verticalAlign=top;html=1;outlineConnect=0;" vertex="1" parent="1">
          <mxGeometry x="450" y="755" width="10" height="20" as="geometry" />
        </mxCell>
        <mxCell id="uHqkfLA_ZD--lBU3Zalu-27" value="Shop inventory" style="rounded=0;whiteSpace=wrap;html=1;" vertex="1" parent="1">
          <mxGeometry x="228" y="1040" width="962" height="60" as="geometry" />
        </mxCell>
        <mxCell id="uHqkfLA_ZD--lBU3Zalu-33" style="edgeStyle=orthogonalEdgeStyle;rounded=0;orthogonalLoop=1;jettySize=auto;html=1;entryX=0;entryY=0.5;entryDx=0;entryDy=0;" edge="1" parent="1" source="uHqkfLA_ZD--lBU3Zalu-28" target="uHqkfLA_ZD--lBU3Zalu-12">
          <mxGeometry relative="1" as="geometry">
            <Array as="points">
              <mxPoint x="871" y="1235" />
              <mxPoint x="871" y="1200" />
              <mxPoint x="870" y="1200" />
              <mxPoint x="870" y="1220" />
              <mxPoint x="890" y="1220" />
            </Array>
          </mxGeometry>
        </mxCell>
        <mxCell id="uHqkfLA_ZD--lBU3Zalu-90" style="edgeStyle=orthogonalEdgeStyle;rounded=0;orthogonalLoop=1;jettySize=auto;html=1;entryX=0.889;entryY=0.002;entryDx=0;entryDy=0;entryPerimeter=0;" edge="1" parent="1" source="uHqkfLA_ZD--lBU3Zalu-28" target="uHqkfLA_ZD--lBU3Zalu-86">
          <mxGeometry relative="1" as="geometry" />
        </mxCell>
        <mxCell id="uHqkfLA_ZD--lBU3Zalu-28" value="Sell" style="rounded=0;whiteSpace=wrap;html=1;" vertex="1" parent="1">
          <mxGeometry x="788" y="1220" width="62.5" height="30" as="geometry" />
        </mxCell>
        <mxCell id="uHqkfLA_ZD--lBU3Zalu-29" value="" style="edgeStyle=orthogonalEdgeStyle;rounded=0;orthogonalLoop=1;jettySize=auto;html=1;" edge="1" parent="1" source="uHqkfLA_ZD--lBU3Zalu-18" target="uHqkfLA_ZD--lBU3Zalu-28">
          <mxGeometry relative="1" as="geometry" />
        </mxCell>
        <mxCell id="uHqkfLA_ZD--lBU3Zalu-32" style="edgeStyle=orthogonalEdgeStyle;rounded=0;orthogonalLoop=1;jettySize=auto;html=1;entryX=0.83;entryY=0.987;entryDx=0;entryDy=0;entryPerimeter=0;" edge="1" parent="1" source="uHqkfLA_ZD--lBU3Zalu-30" target="uHqkfLA_ZD--lBU3Zalu-19">
          <mxGeometry relative="1" as="geometry" />
        </mxCell>
        <mxCell id="uHqkfLA_ZD--lBU3Zalu-84" style="edgeStyle=orthogonalEdgeStyle;rounded=0;orthogonalLoop=1;jettySize=auto;html=1;" edge="1" parent="1" source="uHqkfLA_ZD--lBU3Zalu-30" target="uHqkfLA_ZD--lBU3Zalu-81">
          <mxGeometry relative="1" as="geometry">
            <Array as="points">
              <mxPoint x="820" y="1600" />
              <mxPoint x="1040" y="1600" />
            </Array>
          </mxGeometry>
        </mxCell>
        <mxCell id="uHqkfLA_ZD--lBU3Zalu-30" value="Buy" style="rounded=0;whiteSpace=wrap;html=1;" vertex="1" parent="1">
          <mxGeometry x="770" y="1340" width="70" height="30" as="geometry" />
        </mxCell>
        <mxCell id="uHqkfLA_ZD--lBU3Zalu-42" style="edgeStyle=orthogonalEdgeStyle;rounded=0;orthogonalLoop=1;jettySize=auto;html=1;" edge="1" parent="1" source="uHqkfLA_ZD--lBU3Zalu-35">
          <mxGeometry relative="1" as="geometry">
            <mxPoint x="990" y="450" as="targetPoint" />
          </mxGeometry>
        </mxCell>
        <mxCell id="uHqkfLA_ZD--lBU3Zalu-35" value="Player Push inventory" style="swimlane;fontStyle=0;childLayout=stackLayout;horizontal=1;startSize=26;fillColor=none;horizontalStack=0;resizeParent=1;resizeParentMax=0;resizeLast=0;collapsible=1;marginBottom=0;" vertex="1" parent="1">
          <mxGeometry x="910" y="180" width="140" height="104" as="geometry" />
        </mxCell>
        <mxCell id="uHqkfLA_ZD--lBU3Zalu-36" value="Enerrate buttons" style="text;strokeColor=none;fillColor=none;align=left;verticalAlign=top;spacingLeft=4;spacingRight=4;overflow=hidden;rotatable=0;points=[[0,0.5],[1,0.5]];portConstraint=eastwest;" vertex="1" parent="uHqkfLA_ZD--lBU3Zalu-35">
          <mxGeometry y="26" width="140" height="26" as="geometry" />
        </mxCell>
        <mxCell id="uHqkfLA_ZD--lBU3Zalu-37" value="Generate list of buttons " style="text;strokeColor=none;fillColor=none;align=left;verticalAlign=top;spacingLeft=4;spacingRight=4;overflow=hidden;rotatable=0;points=[[0,0.5],[1,0.5]];portConstraint=eastwest;" vertex="1" parent="uHqkfLA_ZD--lBU3Zalu-35">
          <mxGeometry y="52" width="140" height="26" as="geometry" />
        </mxCell>
        <mxCell id="uHqkfLA_ZD--lBU3Zalu-38" value="Generate Icons " style="text;strokeColor=none;fillColor=none;align=left;verticalAlign=top;spacingLeft=4;spacingRight=4;overflow=hidden;rotatable=0;points=[[0,0.5],[1,0.5]];portConstraint=eastwest;" vertex="1" parent="uHqkfLA_ZD--lBU3Zalu-35">
          <mxGeometry y="78" width="140" height="26" as="geometry" />
        </mxCell>
        <mxCell id="uHqkfLA_ZD--lBU3Zalu-39" style="edgeStyle=orthogonalEdgeStyle;rounded=0;orthogonalLoop=1;jettySize=auto;html=1;" edge="1" parent="1" source="uHqkfLA_ZD--lBU3Zalu-36" target="uHqkfLA_ZD--lBU3Zalu-1">
          <mxGeometry relative="1" as="geometry" />
        </mxCell>
        <mxCell id="uHqkfLA_ZD--lBU3Zalu-40" style="edgeStyle=orthogonalEdgeStyle;rounded=0;orthogonalLoop=1;jettySize=auto;html=1;entryX=1;entryY=0.75;entryDx=0;entryDy=0;" edge="1" parent="1" source="uHqkfLA_ZD--lBU3Zalu-37" target="uHqkfLA_ZD--lBU3Zalu-5">
          <mxGeometry relative="1" as="geometry" />
        </mxCell>
        <mxCell id="uHqkfLA_ZD--lBU3Zalu-41" style="edgeStyle=orthogonalEdgeStyle;rounded=0;orthogonalLoop=1;jettySize=auto;html=1;entryX=0.5;entryY=0.5;entryDx=0;entryDy=0;entryPerimeter=0;" edge="1" parent="1" source="uHqkfLA_ZD--lBU3Zalu-38" target="uHqkfLA_ZD--lBU3Zalu-7">
          <mxGeometry relative="1" as="geometry" />
        </mxCell>
        <mxCell id="uHqkfLA_ZD--lBU3Zalu-47" style="edgeStyle=orthogonalEdgeStyle;rounded=0;orthogonalLoop=1;jettySize=auto;html=1;" edge="1" parent="1" source="uHqkfLA_ZD--lBU3Zalu-43" target="uHqkfLA_ZD--lBU3Zalu-3">
          <mxGeometry relative="1" as="geometry" />
        </mxCell>
        <mxCell id="uHqkfLA_ZD--lBU3Zalu-43" value="InventoryBUttonNames" style="swimlane;fontStyle=1;align=center;verticalAlign=top;childLayout=stackLayout;horizontal=1;startSize=26;horizontalStack=0;resizeParent=1;resizeParentMax=0;resizeLast=0;collapsible=1;marginBottom=0;" vertex="1" parent="1">
          <mxGeometry x="925" y="450" width="160" height="86" as="geometry" />
        </mxCell>
        <mxCell id="uHqkfLA_ZD--lBU3Zalu-44" value="Make list of inventory type" style="text;strokeColor=none;fillColor=none;align=left;verticalAlign=top;spacingLeft=4;spacingRight=4;overflow=hidden;rotatable=0;points=[[0,0.5],[1,0.5]];portConstraint=eastwest;" vertex="1" parent="uHqkfLA_ZD--lBU3Zalu-43">
          <mxGeometry y="26" width="160" height="26" as="geometry" />
        </mxCell>
        <mxCell id="uHqkfLA_ZD--lBU3Zalu-45" value="" style="line;strokeWidth=1;fillColor=none;align=left;verticalAlign=middle;spacingTop=-1;spacingLeft=3;spacingRight=3;rotatable=0;labelPosition=right;points=[];portConstraint=eastwest;" vertex="1" parent="uHqkfLA_ZD--lBU3Zalu-43">
          <mxGeometry y="52" width="160" height="8" as="geometry" />
        </mxCell>
        <mxCell id="uHqkfLA_ZD--lBU3Zalu-46" value="display type as button" style="text;strokeColor=none;fillColor=none;align=left;verticalAlign=top;spacingLeft=4;spacingRight=4;overflow=hidden;rotatable=0;points=[[0,0.5],[1,0.5]];portConstraint=eastwest;" vertex="1" parent="uHqkfLA_ZD--lBU3Zalu-43">
          <mxGeometry y="60" width="160" height="26" as="geometry" />
        </mxCell>
        <mxCell id="uHqkfLA_ZD--lBU3Zalu-48" style="edgeStyle=orthogonalEdgeStyle;rounded=0;orthogonalLoop=1;jettySize=auto;html=1;" edge="1" parent="1" source="uHqkfLA_ZD--lBU3Zalu-46" target="uHqkfLA_ZD--lBU3Zalu-8">
          <mxGeometry relative="1" as="geometry" />
        </mxCell>
        <mxCell id="uHqkfLA_ZD--lBU3Zalu-49" value="Interatcs " style="swimlane;fontStyle=0;childLayout=stackLayout;horizontal=1;startSize=26;fillColor=none;horizontalStack=0;resizeParent=1;resizeParentMax=0;resizeLast=0;collapsible=1;marginBottom=0;" vertex="1" parent="1">
          <mxGeometry x="820" y="710" width="140" height="104" as="geometry" />
        </mxCell>
        <mxCell id="uHqkfLA_ZD--lBU3Zalu-50" value="when raycast hits " style="text;strokeColor=none;fillColor=none;align=left;verticalAlign=top;spacingLeft=4;spacingRight=4;overflow=hidden;rotatable=0;points=[[0,0.5],[1,0.5]];portConstraint=eastwest;" vertex="1" parent="uHqkfLA_ZD--lBU3Zalu-49">
          <mxGeometry y="26" width="140" height="26" as="geometry" />
        </mxCell>
        <mxCell id="uHqkfLA_ZD--lBU3Zalu-51" value="call linya invetory" style="text;strokeColor=none;fillColor=none;align=left;verticalAlign=top;spacingLeft=4;spacingRight=4;overflow=hidden;rotatable=0;points=[[0,0.5],[1,0.5]];portConstraint=eastwest;" vertex="1" parent="uHqkfLA_ZD--lBU3Zalu-49">
          <mxGeometry y="52" width="140" height="26" as="geometry" />
        </mxCell>
        <mxCell id="uHqkfLA_ZD--lBU3Zalu-52" value="set to on" style="text;strokeColor=none;fillColor=none;align=left;verticalAlign=top;spacingLeft=4;spacingRight=4;overflow=hidden;rotatable=0;points=[[0,0.5],[1,0.5]];portConstraint=eastwest;" vertex="1" parent="uHqkfLA_ZD--lBU3Zalu-49">
          <mxGeometry y="78" width="140" height="26" as="geometry" />
        </mxCell>
        <mxCell id="uHqkfLA_ZD--lBU3Zalu-53" value="liniya inventory" style="swimlane;fontStyle=0;childLayout=stackLayout;horizontal=1;startSize=26;fillColor=none;horizontalStack=0;resizeParent=1;resizeParentMax=0;resizeLast=0;collapsible=1;marginBottom=0;" vertex="1" parent="1">
          <mxGeometry x="1070" y="814" width="140" height="104" as="geometry" />
        </mxCell>
        <mxCell id="uHqkfLA_ZD--lBU3Zalu-54" value="gen a list of buttons " style="text;strokeColor=none;fillColor=none;align=left;verticalAlign=top;spacingLeft=4;spacingRight=4;overflow=hidden;rotatable=0;points=[[0,0.5],[1,0.5]];portConstraint=eastwest;" vertex="1" parent="uHqkfLA_ZD--lBU3Zalu-53">
          <mxGeometry y="26" width="140" height="26" as="geometry" />
        </mxCell>
        <mxCell id="uHqkfLA_ZD--lBU3Zalu-55" value="make buttons " style="text;strokeColor=none;fillColor=none;align=left;verticalAlign=top;spacingLeft=4;spacingRight=4;overflow=hidden;rotatable=0;points=[[0,0.5],[1,0.5]];portConstraint=eastwest;" vertex="1" parent="uHqkfLA_ZD--lBU3Zalu-53">
          <mxGeometry y="52" width="140" height="26" as="geometry" />
        </mxCell>
        <mxCell id="uHqkfLA_ZD--lBU3Zalu-56" value="set them to active" style="text;strokeColor=none;fillColor=none;align=left;verticalAlign=top;spacingLeft=4;spacingRight=4;overflow=hidden;rotatable=0;points=[[0,0.5],[1,0.5]];portConstraint=eastwest;" vertex="1" parent="uHqkfLA_ZD--lBU3Zalu-53">
          <mxGeometry y="78" width="140" height="26" as="geometry" />
        </mxCell>
        <mxCell id="uHqkfLA_ZD--lBU3Zalu-57" style="edgeStyle=orthogonalEdgeStyle;rounded=0;orthogonalLoop=1;jettySize=auto;html=1;entryX=0.579;entryY=-0.01;entryDx=0;entryDy=0;entryPerimeter=0;" edge="1" parent="1" source="uHqkfLA_ZD--lBU3Zalu-52" target="uHqkfLA_ZD--lBU3Zalu-53">
          <mxGeometry relative="1" as="geometry" />
        </mxCell>
        <mxCell id="uHqkfLA_ZD--lBU3Zalu-58" style="edgeStyle=orthogonalEdgeStyle;rounded=0;orthogonalLoop=1;jettySize=auto;html=1;entryX=1;entryY=0.75;entryDx=0;entryDy=0;" edge="1" parent="1" source="uHqkfLA_ZD--lBU3Zalu-55" target="uHqkfLA_ZD--lBU3Zalu-25">
          <mxGeometry relative="1" as="geometry" />
        </mxCell>
        <mxCell id="uHqkfLA_ZD--lBU3Zalu-66" style="edgeStyle=orthogonalEdgeStyle;rounded=0;orthogonalLoop=1;jettySize=auto;html=1;" edge="1" parent="1" source="uHqkfLA_ZD--lBU3Zalu-59" target="uHqkfLA_ZD--lBU3Zalu-62">
          <mxGeometry relative="1" as="geometry" />
        </mxCell>
        <mxCell id="uHqkfLA_ZD--lBU3Zalu-59" value="take buttons " style="html=1;" vertex="1" parent="1">
          <mxGeometry x="270" y="880" width="110" height="50" as="geometry" />
        </mxCell>
        <mxCell id="uHqkfLA_ZD--lBU3Zalu-64" style="edgeStyle=orthogonalEdgeStyle;rounded=0;orthogonalLoop=1;jettySize=auto;html=1;entryX=0;entryY=0.75;entryDx=0;entryDy=0;" edge="1" parent="1" source="uHqkfLA_ZD--lBU3Zalu-60" target="uHqkfLA_ZD--lBU3Zalu-25">
          <mxGeometry relative="1" as="geometry" />
        </mxCell>
        <mxCell id="uHqkfLA_ZD--lBU3Zalu-60" value="chest buttons " style="swimlane;fontStyle=0;childLayout=stackLayout;horizontal=1;startSize=26;fillColor=none;horizontalStack=0;resizeParent=1;resizeParentMax=0;resizeLast=0;collapsible=1;marginBottom=0;" vertex="1" parent="1">
          <mxGeometry y="720" width="310" height="104" as="geometry" />
        </mxCell>
        <mxCell id="uHqkfLA_ZD--lBU3Zalu-61" value="send take button info" style="text;strokeColor=none;fillColor=none;align=left;verticalAlign=top;spacingLeft=4;spacingRight=4;overflow=hidden;rotatable=0;points=[[0,0.5],[1,0.5]];portConstraint=eastwest;" vertex="1" parent="uHqkfLA_ZD--lBU3Zalu-60">
          <mxGeometry y="26" width="310" height="26" as="geometry" />
        </mxCell>
        <mxCell id="uHqkfLA_ZD--lBU3Zalu-62" value="if clicked distroy chest button and send to inventory " style="text;strokeColor=none;fillColor=none;align=left;verticalAlign=top;spacingLeft=4;spacingRight=4;overflow=hidden;rotatable=0;points=[[0,0.5],[1,0.5]];portConstraint=eastwest;" vertex="1" parent="uHqkfLA_ZD--lBU3Zalu-60">
          <mxGeometry y="52" width="310" height="26" as="geometry" />
        </mxCell>
        <mxCell id="uHqkfLA_ZD--lBU3Zalu-63" value="+ field: type" style="text;strokeColor=none;fillColor=none;align=left;verticalAlign=top;spacingLeft=4;spacingRight=4;overflow=hidden;rotatable=0;points=[[0,0.5],[1,0.5]];portConstraint=eastwest;" vertex="1" parent="uHqkfLA_ZD--lBU3Zalu-60">
          <mxGeometry y="78" width="310" height="26" as="geometry" />
        </mxCell>
        <mxCell id="uHqkfLA_ZD--lBU3Zalu-65" style="edgeStyle=orthogonalEdgeStyle;rounded=0;orthogonalLoop=1;jettySize=auto;html=1;" edge="1" parent="1" source="uHqkfLA_ZD--lBU3Zalu-61" target="uHqkfLA_ZD--lBU3Zalu-59">
          <mxGeometry relative="1" as="geometry" />
        </mxCell>
        <mxCell id="uHqkfLA_ZD--lBU3Zalu-67" style="edgeStyle=orthogonalEdgeStyle;rounded=0;orthogonalLoop=1;jettySize=auto;html=1;" edge="1" parent="1" source="uHqkfLA_ZD--lBU3Zalu-62" target="uHqkfLA_ZD--lBU3Zalu-1">
          <mxGeometry relative="1" as="geometry">
            <Array as="points">
              <mxPoint x="-80" y="785" />
              <mxPoint x="-80" y="375" />
            </Array>
          </mxGeometry>
        </mxCell>
        <mxCell id="uHqkfLA_ZD--lBU3Zalu-68" value="ShopKeeper" style="swimlane;fontStyle=0;childLayout=stackLayout;horizontal=1;startSize=26;fillColor=none;horizontalStack=0;resizeParent=1;resizeParentMax=0;resizeLast=0;collapsible=1;marginBottom=0;" vertex="1" parent="1">
          <mxGeometry x="1250" y="1165" width="260" height="104" as="geometry" />
        </mxCell>
        <mxCell id="uHqkfLA_ZD--lBU3Zalu-69" value="on raycast hit shoip keep " style="text;strokeColor=none;fillColor=none;align=left;verticalAlign=top;spacingLeft=4;spacingRight=4;overflow=hidden;rotatable=0;points=[[0,0.5],[1,0.5]];portConstraint=eastwest;" vertex="1" parent="uHqkfLA_ZD--lBU3Zalu-68">
          <mxGeometry y="26" width="260" height="26" as="geometry" />
        </mxCell>
        <mxCell id="uHqkfLA_ZD--lBU3Zalu-70" value="gen button list " style="text;strokeColor=none;fillColor=none;align=left;verticalAlign=top;spacingLeft=4;spacingRight=4;overflow=hidden;rotatable=0;points=[[0,0.5],[1,0.5]];portConstraint=eastwest;" vertex="1" parent="uHqkfLA_ZD--lBU3Zalu-68">
          <mxGeometry y="52" width="260" height="26" as="geometry" />
        </mxCell>
        <mxCell id="uHqkfLA_ZD--lBU3Zalu-71" value="make buttons " style="text;strokeColor=none;fillColor=none;align=left;verticalAlign=top;spacingLeft=4;spacingRight=4;overflow=hidden;rotatable=0;points=[[0,0.5],[1,0.5]];portConstraint=eastwest;" vertex="1" parent="uHqkfLA_ZD--lBU3Zalu-68">
          <mxGeometry y="78" width="260" height="26" as="geometry" />
        </mxCell>
        <mxCell id="uHqkfLA_ZD--lBU3Zalu-72" value="ShopButtons" style="swimlane;fontStyle=0;childLayout=stackLayout;horizontal=1;startSize=26;fillColor=none;horizontalStack=0;resizeParent=1;resizeParentMax=0;resizeLast=0;collapsible=1;marginBottom=0;" vertex="1" parent="1">
          <mxGeometry x="1280" y="1350" width="140" height="104" as="geometry" />
        </mxCell>
        <mxCell id="uHqkfLA_ZD--lBU3Zalu-73" value="on click " style="text;strokeColor=none;fillColor=none;align=left;verticalAlign=top;spacingLeft=4;spacingRight=4;overflow=hidden;rotatable=0;points=[[0,0.5],[1,0.5]];portConstraint=eastwest;" vertex="1" parent="uHqkfLA_ZD--lBU3Zalu-72">
          <mxGeometry y="26" width="140" height="26" as="geometry" />
        </mxCell>
        <mxCell id="uHqkfLA_ZD--lBU3Zalu-74" value="send button data to buy button " style="text;strokeColor=none;fillColor=none;align=left;verticalAlign=top;spacingLeft=4;spacingRight=4;overflow=hidden;rotatable=0;points=[[0,0.5],[1,0.5]];portConstraint=eastwest;" vertex="1" parent="uHqkfLA_ZD--lBU3Zalu-72">
          <mxGeometry y="52" width="140" height="26" as="geometry" />
        </mxCell>
        <mxCell id="uHqkfLA_ZD--lBU3Zalu-75" value="+ field: type" style="text;strokeColor=none;fillColor=none;align=left;verticalAlign=top;spacingLeft=4;spacingRight=4;overflow=hidden;rotatable=0;points=[[0,0.5],[1,0.5]];portConstraint=eastwest;" vertex="1" parent="uHqkfLA_ZD--lBU3Zalu-72">
          <mxGeometry y="78" width="140" height="26" as="geometry" />
        </mxCell>
        <mxCell id="uHqkfLA_ZD--lBU3Zalu-77" style="edgeStyle=orthogonalEdgeStyle;rounded=0;orthogonalLoop=1;jettySize=auto;html=1;entryX=1.013;entryY=0.277;entryDx=0;entryDy=0;entryPerimeter=0;" edge="1" parent="1" source="uHqkfLA_ZD--lBU3Zalu-70" target="uHqkfLA_ZD--lBU3Zalu-11">
          <mxGeometry relative="1" as="geometry" />
        </mxCell>
        <mxCell id="uHqkfLA_ZD--lBU3Zalu-78" style="edgeStyle=orthogonalEdgeStyle;rounded=0;orthogonalLoop=1;jettySize=auto;html=1;entryX=1;entryY=0.75;entryDx=0;entryDy=0;" edge="1" parent="1" source="uHqkfLA_ZD--lBU3Zalu-71" target="uHqkfLA_ZD--lBU3Zalu-12">
          <mxGeometry relative="1" as="geometry" />
        </mxCell>
        <mxCell id="uHqkfLA_ZD--lBU3Zalu-79" style="edgeStyle=orthogonalEdgeStyle;rounded=0;orthogonalLoop=1;jettySize=auto;html=1;entryX=0.75;entryY=0;entryDx=0;entryDy=0;" edge="1" parent="1" source="uHqkfLA_ZD--lBU3Zalu-74" target="uHqkfLA_ZD--lBU3Zalu-30">
          <mxGeometry relative="1" as="geometry" />
        </mxCell>
        <mxCell id="uHqkfLA_ZD--lBU3Zalu-80" value="Buy " style="swimlane;fontStyle=0;childLayout=stackLayout;horizontal=1;startSize=26;fillColor=none;horizontalStack=0;resizeParent=1;resizeParentMax=0;resizeLast=0;collapsible=1;marginBottom=0;" vertex="1" parent="1">
          <mxGeometry x="870" y="1600" width="340" height="104" as="geometry" />
        </mxCell>
        <mxCell id="uHqkfLA_ZD--lBU3Zalu-81" value="onclick distroy shop inventory and send to player " style="text;strokeColor=none;fillColor=none;align=left;verticalAlign=top;spacingLeft=4;spacingRight=4;overflow=hidden;rotatable=0;points=[[0,0.5],[1,0.5]];portConstraint=eastwest;" vertex="1" parent="uHqkfLA_ZD--lBU3Zalu-80">
          <mxGeometry y="26" width="340" height="26" as="geometry" />
        </mxCell>
        <mxCell id="uHqkfLA_ZD--lBU3Zalu-82" value="take money from player and send to shop" style="text;strokeColor=none;fillColor=none;align=left;verticalAlign=top;spacingLeft=4;spacingRight=4;overflow=hidden;rotatable=0;points=[[0,0.5],[1,0.5]];portConstraint=eastwest;" vertex="1" parent="uHqkfLA_ZD--lBU3Zalu-80">
          <mxGeometry y="52" width="340" height="26" as="geometry" />
        </mxCell>
        <mxCell id="uHqkfLA_ZD--lBU3Zalu-83" value="+ field: type" style="text;strokeColor=none;fillColor=none;align=left;verticalAlign=top;spacingLeft=4;spacingRight=4;overflow=hidden;rotatable=0;points=[[0,0.5],[1,0.5]];portConstraint=eastwest;" vertex="1" parent="uHqkfLA_ZD--lBU3Zalu-80">
          <mxGeometry y="78" width="340" height="26" as="geometry" />
        </mxCell>
        <mxCell id="uHqkfLA_ZD--lBU3Zalu-85" style="edgeStyle=orthogonalEdgeStyle;rounded=0;orthogonalLoop=1;jettySize=auto;html=1;" edge="1" parent="1" source="uHqkfLA_ZD--lBU3Zalu-81" target="uHqkfLA_ZD--lBU3Zalu-16">
          <mxGeometry relative="1" as="geometry" />
        </mxCell>
        <mxCell id="uHqkfLA_ZD--lBU3Zalu-86" value="Sell" style="swimlane;fontStyle=0;childLayout=stackLayout;horizontal=1;startSize=26;fillColor=none;horizontalStack=0;resizeParent=1;resizeParentMax=0;resizeLast=0;collapsible=1;marginBottom=0;" vertex="1" parent="1">
          <mxGeometry x="487.5" y="1520" width="340" height="104" as="geometry" />
        </mxCell>
        <mxCell id="uHqkfLA_ZD--lBU3Zalu-87" value="onclick distroy player inventory and send to shop " style="text;strokeColor=none;fillColor=none;align=left;verticalAlign=top;spacingLeft=4;spacingRight=4;overflow=hidden;rotatable=0;points=[[0,0.5],[1,0.5]];portConstraint=eastwest;" vertex="1" parent="uHqkfLA_ZD--lBU3Zalu-86">
          <mxGeometry y="26" width="340" height="26" as="geometry" />
        </mxCell>
        <mxCell id="uHqkfLA_ZD--lBU3Zalu-88" value="take money from shop and send to player" style="text;strokeColor=none;fillColor=none;align=left;verticalAlign=top;spacingLeft=4;spacingRight=4;overflow=hidden;rotatable=0;points=[[0,0.5],[1,0.5]];portConstraint=eastwest;" vertex="1" parent="uHqkfLA_ZD--lBU3Zalu-86">
          <mxGeometry y="52" width="340" height="26" as="geometry" />
        </mxCell>
        <mxCell id="uHqkfLA_ZD--lBU3Zalu-89" value="+ field: type" style="text;strokeColor=none;fillColor=none;align=left;verticalAlign=top;spacingLeft=4;spacingRight=4;overflow=hidden;rotatable=0;points=[[0,0.5],[1,0.5]];portConstraint=eastwest;" vertex="1" parent="uHqkfLA_ZD--lBU3Zalu-86">
          <mxGeometry y="78" width="340" height="26" as="geometry" />
        </mxCell>
        <mxCell id="uHqkfLA_ZD--lBU3Zalu-92" style="edgeStyle=orthogonalEdgeStyle;rounded=0;orthogonalLoop=1;jettySize=auto;html=1;" edge="1" parent="1" source="uHqkfLA_ZD--lBU3Zalu-87" target="uHqkfLA_ZD--lBU3Zalu-11">
          <mxGeometry relative="1" as="geometry" />
        </mxCell>
      </root>
    </mxGraphModel>
  </diagram>
</mxfile>
